<?xml version="1.0" standalone="no"?><!DOCTYPE svg PUBLIC "-//W3C//DTD SVG 1.1//EN" "http://www.w3.org/Graphics/SVG/1.1/DTD/svg11.dtd"><svg t="1597373573004" class="icon" viewBox="0 0 1024 1024" version="1.1" xmlns="http://www.w3.org/2000/svg" p-id="6089" xmlns:xlink="http://www.w3.org/1999/xlink" width="16" height="16"><defs><style type="text/css"></style></defs><path d="M512.01 1024C229.223 1024 0 794.778 0 511.968 0 229.222 229.222 0 512.01 0c282.747 0 511.969 229.222 511.969 511.968C1024 794.778 794.779 1024 512.01 1024z m0-959.98C264.57 64.02 64 264.592 64 511.99 64.02 759.407 264.57 959.98 512.01 959.98c247.397 0 447.969-200.572 447.969-448.012 0-247.398-200.572-447.948-447.97-447.948zM376.249 376.248l361.998-90.515-90.515 361.998-361.998 90.515 90.515-361.998z m289.018-17.514l-243.75 62.761-62.291 243.28 243.28-62.292 62.761-243.75z m-183.441 123.09c16.64-16.682 43.69-16.682 60.329 0 16.682 16.64 16.682 43.69 0 60.33-16.64 16.64-43.69 16.64-60.33 0-16.682-16.64-16.682-43.668 0-60.33z" p-id="6090"></path></svg>